Coordinates
version=1
nRows=4
nColumns=40
inDegrees=yes

Units are S.I. units (second, meters, Newtons, ...)
If the header above contains a line with 'inDegrees', this indicates whether rotational values are in degrees (yes) or radians (no).

endheader
time	pelvis_tilt	pelvis_list	pelvis_rotation	pelvis_tx	pelvis_ty	pelvis_tz	hip_flexion_r	hip_adduction_r	hip_rotation_r	knee_angle_r	knee_angle_r_beta	ankle_angle_r	subtalar_angle_r	mtp_angle_r	hip_flexion_l	hip_adduction_l	hip_rotation_l	knee_angle_l	knee_angle_l_beta	ankle_angle_l	subtalar_angle_l	mtp_angle_l	lumbar_extension	lumbar_bending	lumbar_rotation	arm_flex_r	arm_add_r	arm_rot_r	elbow_flex_r	pro_sup_r	wrist_flex_r	wrist_dev_r	arm_flex_l	arm_add_l	arm_rot_l	elbow_flex_l	pro_sup_l	wrist_flex_l	wrist_dev_l
      8.00500000000000078160	     10.92691136982020516655	     -0.32473061331168417976	   -172.94600729029883723342	      0.29320441608825864588	      0.87994065563397394492	     -0.60076556580806872443	     37.80798415392898448317	    -14.62424727976521232620	    -12.59335373595793505785	     30.83725101787024769351	      0.53821156252580859558	      2.44016166726235850248	      0.00000000000000000000	      0.00000000000000000000	     41.69541164042198744255	     -6.95065576417380182050	     -6.27225858067487251901	     34.38779378032608491367	      0.60018022396351788927	      0.68544811569136832041	      0.00000000000000000000	      0.00000000000000000000	    -53.51091865445190620676	      5.14698471901799958772	     -4.14145014924725085592	     49.34161234570554199763	     -2.56708519453601180516	     17.52964783007353588573	      4.57237320562623761333	     13.09941635777357760162	      0.00000000000000000000	      0.00000000000000000000	     56.87580901207601868919	     -8.90239344954307654234	     84.30502836356043872001	      4.70448093350977725180	     85.45541652808415733489	      0.00000000000000000000	      0.00000000000000000000
      8.00999999999999978684	     10.77678878712689680697	     -0.16202071376181384488	   -172.61931287793902356498	      0.29267235732872409759	      0.88060960807446542198	     -0.60002135982549531512	     37.41792737884816943961	    -14.74125105694769999332	    -13.32310080951731379173	     30.75982784074228604254	      0.53686027316757090055	      2.48377978867163529131	      0.00000000000000000000	      0.00000000000000000000	     41.44409512986825916414	     -6.78540612094708084356	     -5.70797214141316455738	     34.09820992344473467028	      0.59512603220031423668	      0.66339247632378295361	      0.00000000000000000000	      0.00000000000000000000	    -53.20248235433631833757	      5.51844224611064682051	     -4.25609324631877505851	     48.74633162483409165588	     -2.73688630693554868500	     18.96024666716278161971	      4.68186015765412566481	     13.03143462610417024905	      0.00000000000000000000	      0.00000000000000000000	     56.44994408534007135358	     -8.87685769124731827162	     84.17565086904070881246	      4.73441030243808036460	     85.37159808834611851580	      0.00000000000000000000	      0.00000000000000000000
      8.01500000000000056843	     10.47533673504895013195	      0.29007475633656898406	   -173.28133202821476288591	      0.29277678284608105175	      0.88175478631612702607	     -0.60008874754971563981	     36.96127937526481588293	    -13.77414056697372579663	    -12.89666860108406076790	     30.15678977489535483869	      0.52633527340368357894	      2.18522458151234744150	      0.00000000000000000000	      0.00000000000000000000	     41.04532027632308910370	     -7.59594507830118104152	     -5.86133755816058599208	     33.98227245792894990473	      0.59310254170064646839	      0.77876058243750323484	      0.00000000000000000000	      0.00000000000000000000	    -53.15665582383805798372	      5.43394114028655650372	     -3.51936144888270163733	     48.73582217161432339481	     -2.90923820749166273103	     19.03159751636141905351	      4.55595441529273514902	     12.92476950680911684799	      0.00000000000000000000	      0.00000000000000000000	     56.16525200342303492107	     -8.78124338850296659587	     84.21152278363052801069	      4.78387147383415989310	     85.38902190168053607522	      0.00000000000000000000	      0.00000000000000000000
      8.01999999999999957367	     10.26108763316611849348	     -0.12328176280934600995	   -174.07315476542518695169	      0.29181170555744090356	      0.88285267155947033668	     -0.60163367314698790178	     36.74659965415947482370	    -13.52098564211136455526	    -11.86376635922754019248	     29.80078498166491840493	      0.52012181760893083649	      1.91006886031277289817	      0.00000000000000000000	      0.00000000000000000000	     40.39702469959532749044	     -7.92197816398760235046	     -7.24822657447367646455	     33.83771577389522633439	      0.59057955160849284759	      0.77581391646112440874	      0.00000000000000000000	      0.00000000000000000000	    -53.01172404626299794472	      4.46137112750295372621	     -3.41743616604144184734	     48.16049401472427149429	     -2.95034343576596169711	     19.93027665088981237318	      4.54376228660839220908	     13.72974157555002250319	      0.00000000000000000000	      0.00000000000000000000	     55.80612329917700975557	     -8.81842734444586184850	     84.41169952047549429608	      4.70942285794483694872	     85.34238515107581690700	      0.00000000000000000000	      0.00000000000000000000
